<svg width="608" height="102" viewBox="0 0 608 102" fill="none" xmlns="http://www.w3.org/2000/svg">
<path d="M153.3 79V19.75H166.35L170.15 28.65V79H153.3ZM188.5 79V45.75C188.5 40.3167 187.85 36.4667 186.55 34.2C185.25 31.9333 183.167 30.8 180.3 30.8C177.267 30.8 174.783 32.0833 172.85 34.65C170.95 37.2167 170 41.0833 170 46.25L161.1 42.7C161.1 37.0667 163.567 31.75 168.5 26.75C173.433 21.75 179.233 19.25 185.9 19.25C193.633 19.25 198.8 21.75 201.4 26.75C204 31.75 205.3 37.6333 205.3 44.4V79H188.5ZM223.5 79V45.75C223.5 40.3167 222.883 36.4667 221.65 34.2C220.417 31.9333 218.35 30.8 215.45 30.8C212.417 30.8 209.95 32.0833 208.05 34.65C206.15 37.2167 205.2 41.0833 205.2 46.25L196.25 42.7C196.25 37.2333 198.717 31.9667 203.65 26.9C208.583 21.8 214.4 19.25 221.1 19.25C228.8 19.25 233.917 21.75 236.45 26.75C239.017 31.7167 240.3 37.6 240.3 44.4V79H223.5ZM278.925 79.6C267.725 79.6 259.875 76.9 255.375 71.5C250.908 66.0667 248.675 58.6833 248.675 49.35C248.675 39.7833 250.925 32.3667 255.425 27.1C259.925 21.8 267.658 19.15 278.625 19.15C289.858 19.15 297.625 21.8333 301.925 27.2C306.258 32.5667 308.425 39.9333 308.425 49.3C308.425 51.1667 308.308 52.8333 308.075 54.3H263.375V44.15H292.375L291.775 45.65C291.775 39.95 290.608 35.9167 288.275 33.55C285.975 31.1833 282.758 30 278.625 30C274.558 30 271.258 31.2833 268.725 33.85C266.192 36.4167 264.925 41.5833 264.925 49.35C264.925 56.95 266.175 62.0833 268.675 64.75C271.208 67.4167 274.625 68.75 278.925 68.75V79.6ZM278.925 68.75C281.425 68.75 283.492 68.4167 285.125 67.75C286.758 67.0833 288.058 65.9667 289.025 64.4C290.025 62.8333 290.875 60.9833 291.575 58.85L306.625 63.1C305.892 67 304.292 70.15 301.825 72.55C299.392 74.95 296.442 76.7333 292.975 77.9C289.542 79.0333 284.858 79.6 278.925 79.6V68.75ZM316.679 101.2V19.75H329.679L333.479 29.15V101.2H316.679ZM352.279 79.4C345.212 79.4 339.062 77.7667 333.829 74.5C328.629 71.2333 326.029 67.6 326.029 63.6L333.479 56.25C333.479 59.5833 334.762 62.3667 337.329 64.6C339.896 66.8 342.929 67.9 346.429 67.9C350.196 67.9 353.096 66.6667 355.129 64.2C357.162 61.7333 358.179 56.7667 358.179 49.3C358.179 41.9333 357.162 37 355.129 34.5C353.096 32 350.196 30.75 346.429 30.75C342.929 30.75 339.896 31.8833 337.329 34.15C334.762 36.3833 333.479 39.1167 333.479 42.35L326.029 35.1C326.029 31.1 328.629 27.4667 333.829 24.2C339.062 20.9 345.212 19.25 352.279 19.25C360.346 19.25 366.179 21.9167 369.779 27.25C373.379 32.55 375.179 39.8833 375.179 49.25C375.179 58.5833 373.379 65.95 369.779 71.35C366.179 76.7167 360.346 79.4 352.279 79.4ZM412.03 79.6C400.83 79.6 392.98 76.9 388.48 71.5C384.014 66.0667 381.78 58.6833 381.78 49.35C381.78 39.7833 384.03 32.3667 388.53 27.1C393.03 21.8 400.764 19.15 411.73 19.15C422.964 19.15 430.73 21.8333 435.03 27.2C439.364 32.5667 441.53 39.9333 441.53 49.3C441.53 51.1667 441.414 52.8333 441.18 54.3H396.48V44.15H425.48L424.88 45.65C424.88 39.95 423.714 35.9167 421.38 33.55C419.08 31.1833 415.864 30 411.73 30C407.664 30 404.364 31.2833 401.83 33.85C399.297 36.4167 398.03 41.5833 398.03 49.35C398.03 56.95 399.28 62.0833 401.78 64.75C404.314 67.4167 407.73 68.75 412.03 68.75V79.6ZM412.03 68.75C414.53 68.75 416.597 68.4167 418.23 67.75C419.864 67.0833 421.164 65.9667 422.13 64.4C423.13 62.8333 423.98 60.9833 424.68 58.85L439.73 63.1C438.997 67 437.397 70.15 434.93 72.55C432.497 74.95 429.547 76.7333 426.08 77.9C422.647 79.0333 417.964 79.6 412.03 79.6V68.75ZM490.984 79L489.884 70.15V0.499997H506.634V79H490.984ZM471.134 79.4C463.101 79.4 457.268 76.7167 453.634 71.35C450.001 65.9833 448.184 58.6167 448.184 49.25C448.184 39.85 450.001 32.5 453.634 27.2C457.268 21.9 463.101 19.25 471.134 19.25C478.234 19.25 484.368 20.9 489.534 24.2C494.734 27.4667 497.334 31.1 497.334 35.1L489.884 42.35C489.884 39.1167 488.601 36.3833 486.034 34.15C483.501 31.8833 480.501 30.75 477.034 30.75C473.268 30.75 470.351 32 468.284 34.5C466.218 36.9667 465.184 41.9 465.184 49.3C465.184 56.7667 466.218 61.7333 468.284 64.2C470.351 66.6667 473.268 67.9 477.034 67.9C480.501 67.9 483.501 66.7833 486.034 64.55C488.601 62.3167 489.884 59.55 489.884 56.25L497.334 63.6C497.334 67.6 494.734 71.2333 489.534 74.5C484.368 77.7667 478.234 79.4 471.134 79.4ZM517.686 79V19.7H534.536V79H517.686ZM517.686 1.9H534.536V13.65H517.686V1.9ZM567.388 79.65C565.054 79.65 562.754 79.5167 560.488 79.25C558.254 78.9833 556.154 78.4833 554.188 77.75C552.221 76.9833 550.488 75.9167 548.988 74.55C547.488 73.1833 546.304 71.4167 545.438 69.25C544.604 67.0833 544.188 64.4333 544.188 61.3C544.188 58.2667 544.604 55.7167 545.438 53.65C546.304 51.55 547.471 49.8333 548.938 48.5C550.404 47.1667 552.104 46.1333 554.037 45.4C555.971 44.6667 558.038 44.1667 560.238 43.9C562.438 43.6 564.671 43.45 566.938 43.45H585.638V41.15C585.638 38.45 585.104 36.3167 584.038 34.75C583.004 33.1833 581.571 32.0833 579.738 31.45C577.938 30.7833 575.904 30.45 573.638 30.45C571.571 30.45 569.688 30.7667 567.988 31.4C566.288 32.0333 564.854 33.0667 563.688 34.5C562.554 35.9333 561.754 37.85 561.288 40.25L544.838 35.65C545.438 32.6833 546.538 30.1667 548.138 28.1C549.771 26 551.838 24.3 554.338 23C556.871 21.6667 559.754 20.7 562.988 20.1C566.254 19.4667 569.788 19.15 573.588 19.15C579.554 19.15 584.704 19.8667 589.038 21.3C593.371 22.7333 596.704 25.1167 599.038 28.45C601.371 31.7833 602.538 36.3167 602.538 42.05V79H588.538L587.088 72.2C586.688 73.1 585.938 74 584.838 74.9C583.738 75.7667 582.321 76.5667 580.588 77.3C578.888 78 576.921 78.5667 574.688 79C572.488 79.4333 570.054 79.65 567.388 79.65ZM571.188 69.1C572.821 69.1 574.438 68.95 576.038 68.65C577.671 68.35 579.154 67.9167 580.488 67.35C581.854 66.7833 582.988 66.1167 583.888 65.35C584.788 64.55 585.371 63.6833 585.638 62.75L586.038 52.75H570.888C569.554 52.75 568.304 52.85 567.138 53.05C565.971 53.2167 564.938 53.5833 564.038 54.15C563.171 54.7167 562.488 55.5333 561.988 56.6C561.488 57.6667 561.238 59.0667 561.238 60.8C561.238 62.5667 561.504 64 562.038 65.1C562.604 66.1667 563.354 67 564.288 67.6C565.254 68.1667 566.321 68.5667 567.488 68.8C568.688 69 569.921 69.1 571.188 69.1Z" fill="black"/>
<path d="M93.5789 62.4961V43.3051C93.5789 42.6085 93.9415 41.962 94.5359 41.5987L107.637 33.5904C107.951 33.3985 108.312 33.2969 108.68 33.2969H109.569C109.953 33.2969 110.33 33.4078 110.653 33.6163L123.015 41.5928C123.586 41.9611 123.931 42.594 123.931 43.2733V73.1949C123.931 73.8136 123.645 74.3975 123.156 74.7763L122.176 75.5345C121.826 75.8059 121.395 75.9531 120.952 75.9531H80.1787C79.7698 75.9531 79.3708 75.8278 79.0353 75.594L77.8566 74.7727C77.3199 74.3987 77 73.7859 77 73.1318V36.6656C77 36.2894 77.1061 35.9208 77.3062 35.6022L78.0474 34.4217C78.1976 34.1823 78.3969 33.9776 78.632 33.8209L107.869 14.3357C108.197 14.1168 108.583 14 108.978 14H109.537C109.941 14 110.336 14.1228 110.67 14.3521L138.01 33.1561C138.146 33.2496 138.27 33.3596 138.379 33.4835L139.502 34.7618C139.823 35.1268 140 35.5962 140 36.0822V79" stroke="black" stroke-width="8"/>
<path d="M3.95 79V11.5H21V39.45H45.9V11.5H62.9V79H45.9V51.05H21V79H3.95Z" fill="black"/>
</svg>
